# xmcd
#
# Track frame offsets: 
#        150
#        11212
#        22602
#
# Disc length: 447 seconds
#
# Revision: 0
# Processed by: cddbd v1.5.1PL0 Copyright (c) Steve Scherf et al.
# Submitted via: ExactAudioCopy v0.95a5
#
DISCID=1401bd03
DTITLE=The Falcons - Canadian Christmas
DYEAR=1998
DGENRE=Christmas/Holiday
TTITLE0=Rudolph The Red
TTITLE1=Jingle Bell Rock
TTITLE2=Les Anges dans nos Campagnes
EXTD=
EXTT0=
EXTT1=
EXTT2=
PLAYORDER=
